<svg xmlns="http://www.w3.org/2000/svg" width="79.982" height="83.029" viewBox="0 0 79.982 83.029"><defs><style>.a{fill:#3c3c3c;}</style></defs><path class="a" d="M994.956,2434.989H983.032a2.017,2.017,0,0,0-2.025,2.025v4.163H932.86v-4.163a2.017,2.017,0,0,0-2.025-2.025H919.024a2.017,2.017,0,0,0-2.025,2.025v12.263a2.017,2.017,0,0,0,2.025,2.025h11.924a2.017,2.017,0,0,0,2.025-2.025v-4.163h22.161c-.225,4.95-12.262,28.239-19.911,41.965a2.083,2.083,0,0,0,.45,2.475c6.862,5.85,8.549,11.588,9,14.513h-2.587a2.017,2.017,0,0,0-2.025,2.025v9.9a2.016,2.016,0,0,0,2.025,2.025h29.923a2.016,2.016,0,0,0,2.025-2.025v-9.9a2.017,2.017,0,0,0-2.025-2.025H969.42c.45-2.925,2.137-8.663,9-14.513a2.054,2.054,0,0,0,.45-2.475c-7.649-13.726-19.686-37.127-19.911-41.965h22.048v4.163a2.017,2.017,0,0,0,2.025,2.025h11.924a2.017,2.017,0,0,0,2.025-2.025v-12.263A2.017,2.017,0,0,0,994.956,2434.989Zm-66.033,12.263h-7.987v-8.326h7.987Zm28.123,32.964a2.588,2.588,0,1,1-2.587,2.588A2.7,2.7,0,0,1,957.046,2480.216Zm13.049,33.639H944.11v-5.963H970.1Zm-4.612-9.9H948.609c-.45-3.263-2.137-9.788-9.224-16.426,2.7-4.95,10.8-19.8,15.636-30.827v19.914a6.451,6.451,0,0,0-4.5,6.188,6.525,6.525,0,1,0,8.549-6.188V2456.59c4.949,11.025,12.936,25.876,15.636,30.939C967.62,2494.167,965.933,2500.692,965.483,2503.955Zm27.56-56.7h-7.987v-8.213h7.987Z" transform="translate(-916.999 -2434.989)"/></svg>