<svg xmlns="http://www.w3.org/2000/svg" width="78.991" height="90.987" viewBox="0 0 78.991 90.987"><defs><style>.a{fill:#3c3c3c;}</style></defs><path class="a" d="M920.081,3230a2.078,2.078,0,0,1-2.092-2.079v-75.438a2.084,2.084,0,0,1,2.092-2.078h20.467a6.134,6.134,0,0,1,6.131-5.686h5.995a5.812,5.812,0,0,1,11.623,0h5.985a6.137,6.137,0,0,1,6.141,5.686h18.466a2.085,2.085,0,0,1,2.092,2.078v75.438a2.079,2.079,0,0,1-2.092,2.079Zm2.093-4.157h70.621v-71.281H976.442v2.619a2.079,2.079,0,0,1-2.093,2.079h-31.73a2.079,2.079,0,0,1-2.093-2.079v-2.619H922.173Zm22.538-75h0v4.261h27.546v-4.261a1.969,1.969,0,0,0-1.977-1.965h-6.539a3.627,3.627,0,0,1-3.63-3.606v-.478a1.627,1.627,0,0,0-3.254,0v.478a3.629,3.629,0,0,1-3.641,3.606h-6.539A1.968,1.968,0,0,0,944.711,3150.842Zm-6.064,65.838-3.1-3.077a1.552,1.552,0,0,1,0-2.205,1.577,1.577,0,0,1,2.219,0l1.988,1.975,5.087-5.052a1.576,1.576,0,0,1,2.219,0,1.551,1.551,0,0,1,0,2.2l-6.195,6.154a1.577,1.577,0,0,1-2.22,0Zm14.99-2.621a1.559,1.559,0,1,1,0-3.119h18.674a1.559,1.559,0,1,1,0,3.119Zm-14.99-10.721-3.1-3.077a1.552,1.552,0,0,1,0-2.2,1.577,1.577,0,0,1,2.219,0l1.988,1.975,5.087-5.052a1.575,1.575,0,0,1,2.219,0,1.552,1.552,0,0,1,0,2.2l-6.195,6.154a1.577,1.577,0,0,1-2.22,0Zm14.99-2.621a1.559,1.559,0,1,1,0-3.117h18.674a1.559,1.559,0,1,1,0,3.117ZM938.647,3190l-3.1-3.077a1.552,1.552,0,0,1,0-2.205,1.577,1.577,0,0,1,2.219,0l1.988,1.975,5.087-5.052a1.576,1.576,0,0,1,2.219,0,1.551,1.551,0,0,1,0,2.205L940.867,3190a1.577,1.577,0,0,1-2.22,0Zm14.99-2.619a1.559,1.559,0,1,1,0-3.118h18.674a1.559,1.559,0,1,1,0,3.118Zm-14.99-10.721-3.1-3.077a1.552,1.552,0,0,1,0-2.205,1.577,1.577,0,0,1,2.219,0l1.988,1.976,5.087-5.052a1.576,1.576,0,0,1,2.219,0,1.552,1.552,0,0,1,0,2.2l-6.195,6.154a1.577,1.577,0,0,1-2.22,0Zm14.99-2.62a1.559,1.559,0,1,1,0-3.119h18.674a1.559,1.559,0,1,1,0,3.119Zm2.832-22.9a2.01,2.01,0,1,1,2.011,2A2.005,2.005,0,0,1,956.47,3151.139Z" transform="translate(-917.989 -3139.013)"/></svg>