<svg xmlns="http://www.w3.org/2000/svg" width="79.002" height="76.003" viewBox="0 0 79.002 76.003"><defs><style>.a{fill:#3c3c3c;}</style></defs><path class="a" d="M920.077,2886a2.09,2.09,0,0,1-2.079-2.1v-71.806a2.089,2.089,0,0,1,2.079-2.1h74.844a2.089,2.089,0,0,1,2.079,2.1V2883.9a2.09,2.09,0,0,1-2.079,2.1Zm2.079-4.2h70.686v-56.72H922.156Zm70.686-60.917v-6.69H922.156v6.69Zm-38.4,42.479a1.838,1.838,0,0,1-1.312-2.234l4.623-18.281a1.82,1.82,0,1,1,3.525.908l-4.623,18.281a1.816,1.816,0,0,1-2.213,1.325Zm12.235-4.723a1.849,1.849,0,0,1,0-2.6l4.365-4.406-4.375-4.416a1.849,1.849,0,0,1,0-2.6,1.808,1.808,0,0,1,2.572,0l5.661,5.713a1.847,1.847,0,0,1,0,2.6l-5.652,5.7a1.8,1.8,0,0,1-2.571,0Zm-20.917,0-5.66-5.713a1.849,1.849,0,0,1,0-2.6l5.65-5.7a1.806,1.806,0,0,1,2.572,0,1.847,1.847,0,0,1,0,2.6l-4.364,4.407,4.374,4.415a1.848,1.848,0,0,1,0,2.6,1.806,1.806,0,0,1-2.572,0Zm-11.328-41.1a1.45,1.45,0,1,1,1.45,1.47A1.46,1.46,0,0,1,934.43,2817.54Zm-4.351,0a1.45,1.45,0,1,1,1.45,1.47A1.46,1.46,0,0,1,930.08,2817.54Zm-4.35,0a1.45,1.45,0,1,1,1.45,1.47A1.46,1.46,0,0,1,925.73,2817.54Z" transform="translate(-917.998 -2809.994)"/></svg>